<svg xmlns="http://www.w3.org/2000/svg" viewBox="0 0 100 100">
  <rect width="100" height="100" rx="18" fill="#3621A4"/>
  <svg x="10" y="18" width="80" height="64" viewBox="0 0 1656 1304">
    <g transform="translate(0,1304) scale(0.1,-0.1)" stroke="none">
      <g fill="#FCC531">
        <path d="M4310 12999 c-74 -4 -175 -12 -225 -19 -297 -38 -300 -38 -565 -99
-122 -28 -364 -105 -445 -141 -11 -5 -54 -23 -95 -41 -231 -97 -496 -257 -705
-423 -154 -123 -393 -364 -532 -536 -126 -158 -291 -396 -378 -550 -76 -133
-245 -477 -245 -498 0 -5 -12 -36 -26 -68 -14 -33 -30 -68 -34 -79 -20 -45
-140 -417 -140 -434 0 -10 -9 -47 -19 -82 -25 -84 -58 -231 -66 -294 -3 -27
-12 -84 -20 -125 -47 -250 -69 -735 -46 -1010 13 -158 37 -347 49 -397 6 -21
15 -76 22 -122 6 -46 16 -95 21 -110 6 -14 14 -44 19 -66 27 -129 61 -240 158
-505 31 -87 132 -311 160 -354 13 -22 31 -55 39 -75 8 -19 30 -59 49 -88 19
-29 34 -56 34 -59 0 -11 137 -213 216 -319 93 -125 364 -414 469 -501 39 -32
76 -65 84 -72 25 -24 244 -182 289 -207 9 -6 55 -33 102 -61 74 -43 242 -128
335 -169 120 -53 197 -81 315 -115 41 -12 86 -27 100 -32 34 -13 250 -57 335
-68 39 -5 93 -14 120 -20 75 -15 522 -23 650 -11 146 13 327 38 373 50 20 6
71 17 112 25 41 9 107 25 145 36 39 12 94 28 124 36 48 14 171 62 306 119 128
54 334 169 490 271 310 204 584 452 990 894 93 102 178 194 190 205 11 12 81
88 155 170 74 82 193 212 264 290 286 312 488 534 595 654 51 58 101 113 110
122 9 9 47 52 86 95 38 43 99 111 135 149 36 39 81 88 100 110 18 22 77 87
130 145 54 58 180 198 281 311 101 113 226 252 278 310 52 57 108 120 125 139
213 239 312 349 422 471 71 79 186 206 255 283 68 76 158 176 199 221 41 46
131 145 199 222 319 354 562 567 811 709 182 104 270 141 495 209 157 47 484
76 635 56 337 -44 414 -62 620 -139 81 -31 267 -122 308 -150 16 -12 34 -22
39 -22 8 0 126 -85 223 -162 273 -216 536 -570 698 -938 8 -19 20 -44 25 -55
6 -11 18 -45 28 -75 9 -30 31 -91 47 -136 16 -44 32 -98 36 -120 4 -21 13 -61
21 -89 48 -172 85 -443 85 -620 0 -291 -110 -757 -240 -1015 -16 -32 -30 -64
-30 -70 0 -9 -131 -239 -195 -344 -108 -174 -297 -411 -545 -681 -69 -75 -175
-191 -336 -370 -54 -60 -101 -112 -104 -115 -4 -3 -49 -52 -100 -110 -52 -58
-111 -123 -131 -145 -20 -22 -83 -92 -140 -155 -56 -63 -153 -169 -213 -236
-61 -66 -165 -181 -231 -254 -66 -74 -127 -141 -135 -149 -8 -9 -75 -84 -149
-166 -74 -83 -137 -152 -140 -155 -3 -3 -47 -50 -96 -105 -170 -189 -298 -330
-345 -380 -25 -27 -106 -117 -180 -200 -73 -82 -155 -172 -181 -200 -25 -27
-71 -78 -100 -112 -59 -67 -317 -352 -335 -368 -6 -5 -44 -48 -85 -95 -41 -47
-150 -168 -244 -271 -93 -102 -224 -246 -290 -319 -66 -73 -127 -141 -135
-149 -9 -9 -72 -79 -140 -155 -321 -359 -462 -510 -704 -751 -261 -260 -346
-332 -486 -408 -145 -79 -328 -115 -483 -96 -181 22 -352 95 -523 224 -83 62
-302 282 -484 485 -47 52 -125 138 -175 190 -106 113 -171 207 -226 325 -59
128 -79 230 -89 445 -11 241 -41 360 -130 506 -83 137 -204 249 -370 343 -69
39 -186 91 -206 91 -5 0 -22 7 -38 15 -52 27 -169 48 -294 52 -100 4 -139 1
-212 -16 -188 -45 -349 -138 -501 -292 -240 -241 -364 -547 -363 -894 1 -78 8
-166 18 -220 60 -316 232 -592 466 -750 168 -112 312 -163 590 -210 133 -22
185 -49 279 -145 75 -76 378 -414 456 -509 33 -41 196 -223 205 -231 4 -3 61
-66 127 -140 240 -269 473 -444 748 -561 39 -17 79 -34 90 -39 46 -21 145 -51
214 -66 41 -8 77 -17 81 -19 3 -2 55 -9 116 -15 60 -6 125 -16 144 -22 49 -16
237 -16 280 -1 19 6 91 17 160 23 68 6 128 14 131 16 4 2 45 11 90 20 144 27
328 96 503 188 124 66 148 81 286 181 210 154 382 324 810 800 121 134 209
231 249 272 7 8 29 33 48 56 19 23 60 69 91 102 31 33 93 101 139 152 93 106
137 154 209 232 45 50 225 248 310 341 17 19 56 62 85 96 108 121 334 370 359
394 14 14 77 84 140 155 63 71 124 138 135 149 11 12 65 71 120 132 55 61 181
200 280 309 99 109 212 234 250 276 159 176 440 484 445 489 3 3 75 82 159
175 338 372 421 464 541 595 69 75 161 176 205 225 44 49 109 121 145 160 197
214 277 301 370 405 57 63 147 162 201 220 177 191 292 340 476 615 97 146
270 470 343 645 17 41 35 84 41 95 5 11 15 40 23 65 8 25 33 97 56 160 23 63
48 140 55 171 7 31 19 79 28 105 35 113 80 358 114 619 14 108 18 206 18 425
-1 285 -11 422 -50 650 -8 47 -20 117 -26 155 -7 39 -23 113 -36 165 -14 52
-31 121 -39 154 -28 112 -114 355 -200 566 -20 48 -134 274 -201 400 -169 314
-444 669 -711 917 -224 208 -450 374 -687 504 -133 73 -326 164 -373 176 -15
3 -54 18 -87 33 -64 28 -179 65 -310 98 -44 11 -108 27 -141 36 -57 14 -189
34 -379 56 -105 13 -597 13 -700 0 -331 -40 -323 -38 -485 -80 -164 -41 -235
-63 -305 -94 -16 -8 -61 -26 -100 -41 -58 -23 -201 -94 -332 -165 -95 -51
-254 -163 -423 -297 -149 -117 -460 -423 -684 -673 -77 -85 -155 -171 -175
-191 -20 -19 -92 -98 -161 -175 -69 -76 -130 -143 -136 -149 -6 -5 -60 -64
-120 -130 -59 -66 -110 -122 -114 -125 -3 -3 -48 -52 -100 -110 -84 -95 -140
-156 -335 -370 -33 -36 -80 -88 -104 -115 -24 -28 -87 -97 -140 -155 -53 -58
-146 -159 -205 -225 -60 -66 -155 -169 -211 -230 -56 -60 -119 -130 -141 -155
-39 -45 -191 -212 -379 -415 -160 -174 -306 -334 -355 -389 -25 -28 -72 -80
-106 -116 -33 -36 -100 -110 -149 -165 -344 -387 -786 -848 -1095 -1141 -275
-260 -571 -449 -840 -537 -173 -56 -244 -70 -445 -87 -114 -10 -152 -9 -305 9
-96 11 -195 27 -220 34 -25 8 -85 27 -135 42 -49 16 -101 34 -115 41 -14 7
-59 29 -100 49 -64 32 -155 82 -218 120 -110 66 -310 234 -418 350 -126 135
-277 338 -353 474 -7 13 -22 40 -33 60 -11 20 -23 41 -27 46 -17 24 -131 298
-131 315 0 7 -7 26 -15 43 -24 52 -44 131 -76 312 -28 154 -31 190 -31 385 0
153 4 240 15 300 9 47 21 119 27 160 6 41 18 100 26 130 44 157 57 198 68 225
8 17 17 46 21 65 4 19 15 53 25 75 10 22 30 72 45 110 28 71 133 287 175 360
13 22 28 49 34 60 132 237 405 536 646 705 182 128 449 264 608 310 79 22 128
36 197 55 87 24 370 55 505 55 277 0 610 -64 850 -163 389 -160 662 -363 1014
-752 150 -166 282 -300 337 -341 26 -18 80 -48 120 -66 69 -30 82 -32 184 -32
102 0 116 3 185 33 221 96 395 304 455 546 32 132 32 220 0 353 -35 143 -95
261 -217 422 -292 388 -645 724 -973 925 -44 27 -87 54 -95 61 -8 6 -46 28
-85 49 -38 21 -90 49 -115 62 -163 88 -452 197 -665 251 -175 45 -215 53 -350
72 -257 37 -478 46 -765 29z"/>
      </g>
    </g>
  </svg>
</svg>
